 http://img541.imageshack.us/img541/2677/theprodigysmackmybitchu.jpg

The Prodigy - Smack My Bitch Up - Official Uncensored HD

General
Complete name                            : The Prodigy - Smack My Bitch Up Official-Uncensored-HD.mp4
Format                                   : MPEG-4
Format profile                           : Base Media
Codec ID                                 : isom
File size                                : 48.4 MiB
Duration                                 : 4mn 34s
Overall bit rate mode                    : Variable
Overall bit rate                         : 1 476 Kbps
Writing application                      : Lavf52.40.0

Video
ID                                       : 1
Format                                   : AVC
Format/Info                              : Advanced Video Codec
Format profile                           : High@L3.1
Format settings, CABAC                   : Yes
Format settings, ReFrames                : 3 frames
Codec ID                                 : avc1
Codec ID/Info                            : Advanced Video Coding
Duration                                 : 4mn 34s
Bit rate                                 : 1 350 Kbps
Width                                    : 960 pixels
Height                                   : 720 pixels
Display aspect ratio                     : 4:3
Frame rate mode                          : Constant
Frame rate                               : 25.000 fps
Color space                              : YUV
Chroma subsampling                       : 4:2:0
Bit depth                                : 8 bits
Scan type                                : Progressive
Bits/(Pixel*Frame)                       : 0.078
Stream size                              : 44.0 MiB (91%)
Writing library                          : x264 core 79
Encoding settings                        : cabac=1 / ref=3 / deblock=1:0:0

Audio
ID                                       : 2
Format                                   : AAC
Format/Info                              : Advanced Audio Codec
Format profile                           : LC
Codec ID                                 : 40
Duration                                 : 4mn 34s
Bit rate mode                            : Variable
Bit rate                                 : 128 Kbps
Channel(s)                               : 2 channels
Channel positions                        : Front: L R
Sampling rate                            : 44.1 KHz
Compression mode                         : Lossy
Delay relative to video                  : 40ms
Stream size                              : 4.19 MiB (9%)